<svg xmlns="http://www.w3.org/2000/svg" fill="none" viewBox="0 0 165 48" class="customer-logo">
<title>DocWay logo</title>
  <g class="docway">
      <path class="path-fill logo-fill" fill="#8FD16A" d="M6.044 31.68v-1.941a3.596 3.596 0 0 0 1.185-2.672 3.612 3.612 0 0 0-3.614-3.608A3.612 3.612 0 0 0 0 27.067c0 1.01.415 1.922 1.084 2.577v4.28c0 1.392 1.17 2.524 2.608 2.524h8.594c9.639 0 16.635-6.297 16.635-15.054 0-8.63-6.996-14.894-16.635-14.894H3.692c-1.438 0-2.608 1.132-2.608 2.525v4.28A3.594 3.594 0 0 0 0 15.88a3.612 3.612 0 0 0 3.615 3.609 3.612 3.612 0 0 0 3.614-3.609 3.596 3.596 0 0 0-1.185-2.671v-1.942h6.242c6.625 0 11.252 4.197 11.252 10.286 0 5.962-4.627 10.126-11.252 10.126H6.044Z"/>
      <path class="path-fill logo-fill" fill="#8FD16A" fill-rule="evenodd" d="M30.363 23.982c0-6.97 5.48-12.43 12.474-12.43 6.972 0 12.432 5.423 12.432 12.346 0 7.054-5.498 12.515-12.516 12.515-6.948 0-12.39-5.423-12.39-12.346v-.085Zm5.314-.084c0 4.324 3.145 7.645 7.16 7.645 4.058 0 7.119-3.214 7.119-7.476v-.085c0-4.264-3.165-7.603-7.203-7.603-4.035 0-7.076 3.232-7.076 7.519Z" clip-rule="evenodd"/>
      <path class="path-fill logo-fill" fill="#8FD16A" d="M76.26 28.444c-.606 0-1.154.24-1.607.692-1.717 1.62-3.505 2.407-5.466 2.407-3.993 0-7.12-3.32-7.12-7.645 0-4.216 3.033-7.52 6.907-7.52 2.42 0 4.001 1.142 5.385 2.408a2.69 2.69 0 0 0 1.689.607 2.55 2.55 0 0 0 2.55-2.541c0-.869-.445-1.547-.828-1.863-2.578-2.345-5.36-3.437-8.754-3.437-6.763 0-12.266 5.577-12.266 12.43v.085c0 6.808 5.503 12.346 12.266 12.346 3.533 0 6.392-1.21 8.997-3.806a2.453 2.453 0 0 0 .713-1.706c0-1.331-1.13-2.457-2.465-2.457Zm22.158-5.886c.016.044.03.08.04.112l4.055 11.866c.434 1.425 1.453 2.243 2.926 2.243 1.262 0 2.302-.825 2.778-2.195l6.949-19.299c.102-.301.242-.715.242-1.153 0-1.423-1.195-2.58-2.664-2.58-1.234 0-2.171.736-2.564 1.996l-4.259 12.597c-.268.594-.843.755-1.164-.154a3.35 3.35 0 0 0-.072-.194l-4.072-12.202c-.426-1.279-1.433-2.043-2.699-2.043h-.174c-1.23 0-2.18.745-2.611 2.04l-4.21 12.521c-.256.63-.839.826-1.168-.092l-4.137-12.366c-.416-1.317-1.41-2.103-2.662-2.103-1.492 0-2.706 1.177-2.706 2.624 0 .438.14.852.278 1.26l6.867 19.141c.48 1.378 1.535 2.202 2.912 2.202 1.322 0 2.367-.84 2.783-2.21l4.209-12.225c.277-.544.814-.664 1.123.214Zm51.884 9.867-8.304-17.116c-.209-.47-.302-.874-.302-1.262 0-1.4 1.146-2.495 2.608-2.495.807 0 1.902.314 2.535 1.81l5.742 12.593.054.114c.425.916 1.269.697 1.575.062 3.174-7.82 4.898-12.085 5.172-12.796.44-1.145 1.315-1.783 2.457-1.783 1.414 0 2.565 1.119 2.565 2.495 0 .39-.116.78-.217 1.075l-8.541 19.82c-2.015 4.658-4.385 6.558-8.181 6.558-1.687 0-2.871-.32-3.954-.686-1.02-.414-1.605-1.222-1.605-2.22 0-1.261 1.057-2.289 2.355-2.289.448 0 .808.117 1.098.21l.002.001c.547.178 1.076.323 2.062.323.995 0 1.811-.315 2.698-1.7 0-.03.027-.083.081-.16.502-.72.529-1.607.152-2.387a.43.43 0 0 1-.052-.167Z"/>
      <path class="path-fill logo-fill" fill="#8FD16A" fill-rule="evenodd" d="M117.116 29.181c0 4.817 3.778 7.452 8.375 7.452 3.369 0 5.69-1.227 7.374-3.09.88 1.939 1.988 2.908 3.323 2.908 1.866 0 2.438-1.454 2.438-3.317V22.048l.001-.823c.005-4.329.006-5.233-1.711-6.947-1.729-1.727-4.46-2.726-8.238-2.726-3.232 0-5.599.454-7.784 1.272a2.862 2.862 0 0 0-1.866 2.68c0 1.591 1.072 2.26 2.665 2.26.097 0 .513-.116 1.099-.28 1.337-.372 3.556-.99 4.884-1.04 5.448-.201 5.361 1.97 5.262 4.444-.013.337-.027.68-.027 1.023v.41c-1.73-.591-3.505-1-5.963-1-5.781 0-9.832 2.453-9.832 7.77v.09Zm15.471-1.56c-.304 2.458-1.77 4.241-5.002 4.241-2.23 0-4.688-1.09-4.688-2.953v-.091c0-2.181 2.731-3.363 5.69-3.363 1.684 0 3.491.183 3.815.544.216.241.278.782.185 1.623Z" clip-rule="evenodd"/>
  </g>
</svg>
